<?xml version="1.0" encoding="UTF-8" standalone="no"?>
<svg
   xmlns:dc="http://purl.org/dc/elements/1.1/"
   xmlns:cc="http://creativecommons.org/ns#"
   xmlns:rdf="http://www.w3.org/1999/02/22-rdf-syntax-ns#"
   xmlns:svg="http://www.w3.org/2000/svg"
   xmlns="http://www.w3.org/2000/svg"
   viewBox="0 0 1440 2560"
   height="2560"
   width="1440"
   xml:space="preserve"
   id="svg2"
   version="1.1"><metadata
     id="metadata8"><rdf:RDF><cc:Work
         rdf:about=""><dc:format>image/svg+xml</dc:format><dc:type
           rdf:resource="http://purl.org/dc/dcmitype/StillImage" /></cc:Work></rdf:RDF></metadata><defs
     id="defs6"><clipPath
       id="clipPath18"
       clipPathUnits="userSpaceOnUse"><path
         id="path16"
         d="M 0,1920 H 1080 V 0 H 0 Z" /></clipPath><clipPath
       id="clipPath26"
       clipPathUnits="userSpaceOnUse"><path
         id="path24"
         d="M -6.10352e-5,470.592 H 1080 V 0.248032 H -6.10352e-5 Z" /></clipPath><clipPath
       id="clipPath30"
       clipPathUnits="userSpaceOnUse"><path
         id="path28"
         d="M 1080,0.248 H 0 v 470.344 h 1080 z" /></clipPath><clipPath
       id="clipPath34"
       clipPathUnits="userSpaceOnUse"><path
         id="path32"
         d="M -32768,32767 H 32767 V -32768 H -32768 Z" /></clipPath><linearGradient
       id="linearGradient42"
       spreadMethod="pad"
       gradientTransform="matrix(0,-470.34418,-470.34418,0,539.99994,470.59222)"
       gradientUnits="userSpaceOnUse"
       y2="0"
       x2="1"
       y1="0"
       x1="0"><stop
         id="stop36"
         offset="0"
         style="stop-opacity:0;stop-color:#ffffff" /><stop
         id="stop38"
         offset="0.38882516"
         style="stop-opacity:1;stop-color:#ffffff" /><stop
         id="stop40"
         offset="1"
         style="stop-opacity:1;stop-color:#ffffff" /></linearGradient><mask
       id="mask44"
       height="1"
       width="1"
       y="0"
       x="0"
       maskUnits="userSpaceOnUse"><g
         id="g54"><g
           id="g52"
           clip-path="url(#clipPath34)"><g
             id="g50"><g
               id="g48"><path
                 id="path46"
                 style="fill:url(#linearGradient42);stroke:none"
                 d="M -32768,32767 H 32767 V -32768 H -32768 Z" /></g></g></g></g></mask><linearGradient
       id="linearGradient62"
       spreadMethod="pad"
       gradientTransform="matrix(0,-470.34418,-470.34418,0,539.99994,470.59222)"
       gradientUnits="userSpaceOnUse"
       y2="0"
       x2="1"
       y1="0"
       x1="0"><stop
         id="stop56"
         offset="0"
         style="stop-opacity:1;stop-color:#ffffff" /><stop
         id="stop58"
         offset="0.38882516"
         style="stop-opacity:1;stop-color:#373535" /><stop
         id="stop60"
         offset="1"
         style="stop-opacity:1;stop-color:#373535" /></linearGradient><clipPath
       id="clipPath88"
       clipPathUnits="userSpaceOnUse"><path
         id="path86"
         d="M 0,1920 H 1080 V 0 H 0 Z" /></clipPath><clipPath
       id="clipPath96"
       clipPathUnits="userSpaceOnUse"><path
         id="path94"
         d="M -20.0155,454.039 H 1179.19 V -161.725 H -20.0155 Z" /></clipPath><clipPath
       id="clipPath100"
       clipPathUnits="userSpaceOnUse"><path
         id="path98"
         d="M 1080,-2.123 H 0 v 452.822 h 1080 z" /></clipPath></defs><g
     transform="matrix(1.3333333,0,0,-1.3333333,0,2560)"
     id="g10"><g
       id="g12"><g
         clip-path="url(#clipPath18)"
         id="g14"><g
           id="g20"><g
             id="g22" /><g
             id="g80"><g
               style="opacity:0.80999798"
               id="g78"
               clip-path="url(#clipPath26)"><g
                 id="g76"><g
                   id="g74"
                   clip-path="url(#clipPath30)"><g
                     id="g72"><g
                       id="g64" /><g
                       id="g70"
                       mask="url(#mask44)"><g
                         id="g68"><path
                           id="path66"
                           style="fill:url(#linearGradient62);stroke:none"
                           d="M 1080,0.248 H 0 v 470.344 h 1080 z" /></g></g></g></g></g></g></g></g></g></g><g
       id="g82"><g
         clip-path="url(#clipPath88)"
         id="g84"><g
           id="g90"><g
             id="g92" /><g
             id="g188"><g
               style="opacity:0.30999804"
               id="g186"
               clip-path="url(#clipPath96)"><g
                 id="g104"
                 transform="translate(715.1341,281.6864)"><path
                   id="path102"
                   style="fill:none;stroke:#ffffff;stroke-width:16;stroke-linecap:butt;stroke-linejoin:miter;stroke-miterlimit:10;stroke-dasharray:none;stroke-opacity:1"
                   d="M 0,0 -14.079,38.3 -28.157,76.6 29.912,62.474 87.982,48.348 43.991,24.174 Z" /></g><g
                 id="g108"
                 transform="translate(673.7481,4.374)"><path
                   id="path106"
                   style="fill:#ffffff;fill-opacity:1;fill-rule:nonzero;stroke:none"
                   d="M 0,0 26.708,-6.497 H 61.406 L 77.507,27.132 19.721,41.189 Z" /></g><g
                 id="g112"
                 transform="translate(1011.0434,-0.8543)"><path
                   id="path110"
                   style="fill:#ffffff;fill-opacity:1;fill-rule:nonzero;stroke:none"
                   d="M 0,0 -81.418,19.805 -53.632,77.839 27.786,58.033 Z" /></g><g
                 id="g116"
                 transform="translate(528.9435,208.3356)"><path
                   id="path114"
                   style="fill:#ffffff;fill-opacity:1;fill-rule:nonzero;stroke:none"
                   d="M 0,0 -23.368,26.774 14.195,43.43 37.563,16.656 Z" /></g><g
                 id="g120"
                 transform="translate(403.3519,80.423)"><path
                   id="path118"
                   style="fill:#ffffff;fill-opacity:1;fill-rule:nonzero;stroke:none"
                   d="m 0,0 -61.488,-21.524 -30.198,43.827 61.488,21.525 z" /></g><g
                 id="g124"
                 transform="translate(949.4935,327.6099)"><path
                   id="path122"
                   style="fill:#ffffff;fill-opacity:1;fill-rule:nonzero;stroke:none"
                   d="M 0,0 -50.573,12.302 -33.314,48.35 17.26,36.047 Z" /></g><g
                 id="g128"
                 transform="translate(532.7715,360.9222)"><path
                   id="path126"
                   style="fill:#ffffff;fill-opacity:1;fill-rule:nonzero;stroke:none"
                   d="M 0,0 -50.972,12.399 -33.576,48.731 17.396,36.332 Z" /></g><g
                 id="g132"
                 transform="translate(1020.2518,220.3249)"><path
                   id="path130"
                   style="fill:#ffffff;fill-opacity:1;fill-rule:nonzero;stroke:none"
                   d="m 0,0 -27.664,6.729 9.441,19.719 27.664,-6.73 z" /></g><g
                 id="g136"
                 transform="translate(849.6093,134.2765)"><path
                   id="path134"
                   style="fill:#ffffff;fill-opacity:1;fill-rule:nonzero;stroke:none"
                   d="M 0,0 -88.04,21.416 -57.994,84.17 30.046,62.753 Z" /></g><g
                 id="g140"
                 transform="translate(263.7419,276.7923)"><path
                   id="path138"
                   style="fill:#ffffff;fill-opacity:1;fill-rule:nonzero;stroke:none"
                   d="m 0,0 -77.219,-27.031 -37.924,55.04 77.22,27.031 z" /></g><g
                 id="g144"
                 transform="translate(371.2171,269.1758)"><path
                   id="path142"
                   style="fill:#ffffff;fill-opacity:1;fill-rule:nonzero;stroke:none"
                   d="m 0,0 -20.738,5.045 7.077,14.782 20.739,-5.045 z" /></g><g
                 id="g148"
                 transform="translate(190.505,132.5916)"><path
                   id="path146"
                   style="fill:#ffffff;fill-opacity:1;fill-rule:nonzero;stroke:none"
                   d="m 0,0 -34.01,8.273 11.607,24.241 34.01,-8.273 z" /></g><g
                 id="g152"
                 transform="translate(548.3179,43.0201)"><path
                   id="path150"
                   style="fill:#ffffff;fill-opacity:1;fill-rule:nonzero;stroke:none"
                   d="m 0,0 -27.664,6.729 9.441,19.719 27.664,-6.73 z" /></g><g
                 id="g156"
                 transform="translate(56.2644,18.2205)"><path
                   id="path154"
                   style="fill:#ffffff;fill-opacity:1;fill-rule:nonzero;stroke:none"
                   d="M 0,0 34.832,-20.344 H 55.553 L 85.928,6.079 38.7,33.664 Z" /></g><g
                 id="g160"
                 transform="translate(433.0764,224.2878)"><path
                   id="path158"
                   style="fill:#ffffff;fill-opacity:1;fill-rule:nonzero;stroke:none"
                   d="m 0,0 -24.024,-19.122 34.072,-8.313 z M -34.689,-21.107 3.027,8.914 18.801,-34.157 Z" /></g><g
                 id="g184"><g
                   id="g182"
                   clip-path="url(#clipPath100)"><g
                     id="g164"
                     transform="translate(1124.4722,167.6026)"><path
                       id="path162"
                       style="fill:none;stroke:#ffffff;stroke-width:16;stroke-linecap:butt;stroke-linejoin:miter;stroke-miterlimit:10;stroke-dasharray:none;stroke-opacity:1"
                       d="m 0,0 -0.091,-19.184 -0.09,-19.184 -24.729,11.764 -24.729,11.763 24.82,7.421 z" /></g><g
                     id="g168"
                     transform="translate(229.9602,48.5737)"><path
                       id="path166"
                       style="fill:#ffffff;fill-opacity:1;fill-rule:nonzero;stroke:none"
                       d="m 0,0 c -2.354,-4.917 -9.854,-7.542 -16.752,-5.864 -6.898,1.678 -10.581,7.024 -8.227,11.94 2.354,4.917 9.854,7.542 16.752,5.864 C -1.329,10.263 2.354,4.917 0,0" /></g><g
                     id="g172"
                     transform="translate(363.7549,430.4254)"><path
                       id="path170"
                       style="fill:#ffffff;fill-opacity:1;fill-rule:nonzero;stroke:none"
                       d="m 0,0 c -4.466,-9.327 -18.694,-14.308 -31.78,-11.125 -13.086,3.183 -20.073,13.325 -15.607,22.652 4.465,9.327 18.694,14.308 31.779,11.125 C -2.522,19.469 4.466,9.327 0,0" /></g><g
                     id="g176"
                     transform="translate(43.479,187.8402)"><path
                       id="path174"
                       style="fill:#ffffff;fill-opacity:1;fill-rule:nonzero;stroke:none"
                       d="m 0,0 c -5.818,-12.152 -24.355,-18.641 -41.404,-14.494 -17.048,4.148 -26.152,17.36 -20.333,29.512 5.818,12.152 24.355,18.641 41.403,14.494 C -3.286,25.364 5.818,12.152 0,0" /></g><g
                     id="g180"
                     transform="translate(129.9243,388.6519)"><path
                       id="path178"
                       style="fill:none;stroke:#ffffff;stroke-width:16;stroke-linecap:butt;stroke-linejoin:miter;stroke-miterlimit:10;stroke-dasharray:none;stroke-opacity:1"
                       d="M 0,0 25.774,17.066 51.548,34.132 57.872,6.803 64.195,-20.526 32.097,-10.263 Z" /></g></g></g></g></g></g></g></g><path
       id="path190"
       style="fill:none;stroke:#ffffff;stroke-width:5;stroke-linecap:round;stroke-linejoin:miter;stroke-miterlimit:10;stroke-dasharray:0, 13;stroke-dashoffset:0;stroke-opacity:1"
       d="M 1014,183.354 H 87.925 V 408.487 H 1014 Z" /><text
       id="text194"
       style="font-variant:normal;font-weight:normal;font-stretch:normal;font-size:44.89229965px;font-family:Mashine;-inkscape-font-specification:Mashine-Regular;writing-mode:lr-tb;fill:#fdfdfd;fill-opacity:1;fill-rule:nonzero;stroke:none"
       transform="matrix(1,0,0,-1,363.2197,239.0107)"><tspan
         id="tspan192"
         y="0"
         x="0 38.158455 76.31691 95.800171 124.62103 144.10428 182.26274 220.42119 239.90445 268.72531 288.20856 326.36703">00 / 00 / 00</tspan></text>
<text
       id="text198"
       style="font-variant:normal;font-weight:bold;font-stretch:normal;font-size:67.33840179px;font-family:Mashine;-inkscape-font-specification:Mashine-Bold;writing-mode:lr-tb;fill:#fdfdfd;fill-opacity:1;fill-rule:nonzero;stroke:none"
       transform="matrix(1,0,0,-1,156.0674,296.9463)"><tspan
         id="tspan196"
         y="0"
         x="0 50.773155 107.06805 157.84122 220.66794 268.88223 293.66275 356.4895 415.14124 486.38525 538.77454 563.55505 625.10236 675.87555 735.26801">eveNt NaME herE</tspan></text>
</g></svg>